<?xml version="1.0" encoding="utf-8"?>
<!-- Generated by IcoMoon.io -->
<!DOCTYPE svg PUBLIC "-//W3C//DTD SVG 1.1//EN" "http://www.w3.org/Graphics/SVG/1.1/DTD/svg11.dtd">
<svg version="1.1" xmlns="http://www.w3.org/2000/svg" xmlns:xlink="http://www.w3.org/1999/xlink" width="512" height="512" viewBox="0 0 512 512">
<g id="icomoon-ignore">
</g>
<path d="M561.023 444.513c-0.002-0.002-0.005-0.005-0.008-0.007l-188.504-188.507 188.504-188.507c0.002-0.002 0.005-0.003 0.008-0.007 2.029-2.031 3.496-4.402 4.437-6.928 2.577-6.903 1.107-14.977-4.444-20.529l-89.048-89.047c-5.551-5.55-13.623-7.018-20.527-4.442-2.524 0.941-4.897 2.408-6.928 4.435 0 0.002-0.002 0.003-0.005 0.007l-188.506 188.508-188.506-188.507c-0.002-0.002-0.003-0.003-0.007-0.007-2.031-2.029-4.402-3.495-6.926-4.435-6.905-2.578-14.977-1.108-20.529 4.442l-89.049 89.049c-5.551 5.551-7.020 13.624-4.443 20.528 0.941 2.525 2.409 4.898 4.437 6.927 0.002 0.001 0.003 0.003 0.007 0.007l188.507 188.506-188.507 188.508c-0.001 0.002-0.003 0.003-0.005 0.007-2.029 2.031-3.495 4.402-4.438 6.926-2.578 6.903-1.108 14.977 4.443 20.529l89.049 89.048c5.553 5.552 13.624 7.019 20.529 4.443 2.525-0.942 4.897-2.409 6.927-4.437 0.001-0.002 0.003-0.003 0.007-0.006l188.506-188.507 188.506 188.507c0.002 0.001 0.005 0.003 0.007 0.005 2.031 2.029 4.402 3.496 6.926 4.438 6.904 2.577 14.978 1.109 20.527-4.443l89.047-89.048c5.552-5.551 7.021-13.625 4.444-20.529-0.942-2.524-2.409-4.896-4.438-6.926z"></path>
</svg>
